<?xml version="1.0" encoding="utf-8"?>
<svg width="346" height="432" viewBox="0 0 346 432" xmlns="http://www.w3.org/2000/svg">
<rect id="frame" x="0" y="0" width="346" height="432" fill="#ffffbf" stroke="none" stroke-width="0"/>

<!-- Association play -->
<g class="page_0_bwDr70XB diagram_page" visibility="visible">
	<line x1="154" y1="212" x2="154" y2="51" stroke="#f46d43" stroke-width="2"/>
	<text x="159" y="102" fill="#1a9850" font-family="Verdana" font-size="12">0,N</text>
	<line x1="281" y1="51" x2="154" y2="51" stroke="#f46d43" stroke-width="2"/>
	<text x="215" y="68" fill="#1a9850" font-family="Verdana" font-size="12">0,N</text>
	<g>
		<path d="M160 26 a14 14 90 0 1 14 14 V51 h-40 V40 a14 14 90 0 1 14 -14" fill="#fdae61" stroke="#fdae61" stroke-width="0"/>
		<path d="M174 51 v11 a14 14 90 0 1 -14 14 H148 a14 14 90 0 1 -14 -14 V51 H40" fill="#fee08b" stroke="#fee08b" stroke-width="0"/>
		<rect x="134" y="26" width="40" height="50" fill="none" rx="14" stroke="#f46d43" stroke-width="2"/>
		<line x1="134" y1="51" x2="174" y2="51" stroke="#f46d43" stroke-width="1"/>
		<text x="141" y="43.75" fill="#000" font-family="Verdana" font-size="12">play</text>
		<text x="141" y="68.8" fill="#000" font-family="Verdana" font-size="12">role</text>
	</g>
</g>

<!-- Association classed -->
<g class="page_0_bwDr70XB diagram_page" visibility="visible">
	<line x1="154" y1="212" x2="50" y2="212" stroke="#f46d43" stroke-width="2"/>
	<text x="85" y="229" fill="#1a9850" font-family="Verdana" font-size="12">1,N</text>
	<line x1="50" y1="51" x2="50" y2="212" stroke="#f46d43" stroke-width="2"/>
	<text x="55" y="102" fill="#1a9850" font-family="Verdana" font-size="12">0,N</text>
	<g>
		<path d="M66 187 a14 14 90 0 1 14 14 V212 h-60 V201 a14 14 90 0 1 14 -14" fill="#fdae61" stroke="#fdae61" stroke-width="0"/>
		<path d="M80 212 v11 a14 14 90 0 1 -14 14 H34 a14 14 90 0 1 -14 -14 V212 H60" fill="#fee08b" stroke="#fee08b" stroke-width="0"/>
		<rect x="20" y="187" width="60" height="50" fill="none" rx="14" stroke="#f46d43" stroke-width="2"/>
		<line x1="20" y1="212" x2="80" y2="212" stroke="#f46d43" stroke-width="1"/>
		<text x="28" y="204.75" fill="#000" font-family="Verdana" font-size="12">classed</text>
	</g>
</g>

<!-- Association belongs to -->
<g class="page_0_bwDr70XB diagram_page" visibility="visible">
	<line x1="154" y1="212" x2="154" y2="381" stroke="#f46d43" stroke-width="2"/>
	<text x="159" y="331" fill="#1a9850" font-family="Verdana" font-size="12">0,N</text>
	<line x1="281" y1="381" x2="154" y2="381" stroke="#f46d43" stroke-width="2"/>
	<text x="199" y="398" fill="#1a9850" font-family="Verdana" font-size="12">0,1</text>
	<g>
		<path d="M179 356 a14 14 90 0 1 14 14 V381 h-78 V370 a14 14 90 0 1 14 -14" fill="#fdae61" stroke="#fdae61" stroke-width="0"/>
		<path d="M193 381 v11 a14 14 90 0 1 -14 14 H129 a14 14 90 0 1 -14 -14 V381 H78" fill="#fee08b" stroke="#fee08b" stroke-width="0"/>
		<rect x="115" y="356" width="78" height="50" fill="none" rx="14" stroke="#f46d43" stroke-width="2"/>
		<line x1="115" y1="381" x2="193" y2="381" stroke="#f46d43" stroke-width="1"/>
		<text x="122" y="373.75" fill="#000" font-family="Verdana" font-size="12">belongs to</text>
	</g>
</g>

<!-- Entity genre -->
<g class="page_0_bwDr70XB diagram_page" visibility="visible">
	<g>
		<rect x="9" y="17" width="82" height="25" fill="#a6d96a" stroke="#a6d96a" stroke-width="0" opacity="1"/>
		<rect x="9" y="42" width="82" height="43" fill="#d9ef8b" stroke="#d9ef8b" stroke-width="0" opacity="1"/>
		<rect x="9" y="17" width="82" height="68" fill="none" stroke="#66bd63" stroke-width="2" opacity="1"/>
		<line x1="9" y1="42" x2="91" y2="42" stroke="#66bd63" stroke-width="1"/>
	</g>
	<text x="32" y="34.75" fill="#000" font-family="Verdana" font-size="12">genre</text>
	<text x="14" y="59.8" fill="#000" font-family="Verdana" font-size="12">code_genre</text>
	<line x1="14" y1="62" x2="85" y2="62" stroke="#000" stroke-width="1"/>
	<text x="14" y="76.8" fill="#000" font-family="Verdana" font-size="12">title</text>
</g>

<!-- Entity actor -->
<g class="page_0_bwDr70XB diagram_page" visibility="visible">
	<g>
		<rect x="242" y="9" width="78" height="25" fill="#a6d96a" stroke="#a6d96a" stroke-width="0" opacity="1"/>
		<rect x="242" y="34" width="78" height="59" fill="#d9ef8b" stroke="#d9ef8b" stroke-width="0" opacity="1"/>
		<rect x="242" y="9" width="78" height="84" fill="none" stroke="#66bd63" stroke-width="2" opacity="1"/>
		<line x1="242" y1="34" x2="320" y2="34" stroke="#66bd63" stroke-width="1"/>
	</g>
	<text x="265" y="26.75" fill="#000" font-family="Verdana" font-size="12">actor</text>
	<text x="247" y="51.8" fill="#000" font-family="Verdana" font-size="12">code_actor</text>
	<line x1="247" y1="54" x2="314" y2="54" stroke="#000" stroke-width="1"/>
	<text x="247" y="68.8" fill="#000" font-family="Verdana" font-size="12">firstname</text>
	<text x="247" y="85.8" fill="#000" font-family="Verdana" font-size="12">lastname</text>
</g>

<!-- Entity movie -->
<g class="page_0_bwDr70XB diagram_page" visibility="visible">
	<g>
		<rect x="112" y="110" width="84" height="25" fill="#a6d96a" stroke="#a6d96a" stroke-width="0" opacity="1"/>
		<rect x="112" y="135" width="84" height="179" fill="#d9ef8b" stroke="#d9ef8b" stroke-width="0" opacity="1"/>
		<rect x="112" y="110" width="84" height="204" fill="none" stroke="#66bd63" stroke-width="2" opacity="1"/>
		<line x1="112" y1="135" x2="196" y2="135" stroke="#66bd63" stroke-width="1"/>
	</g>
	<text x="135" y="127.75" fill="#000" font-family="Verdana" font-size="12">movie</text>
	<text x="117" y="152.8" fill="#000" font-family="Verdana" font-size="12">code_movie</text>
	<line x1="117" y1="155" x2="190" y2="155" stroke="#000" stroke-width="1"/>
	<text x="117" y="169.8" fill="#000" font-family="Verdana" font-size="12">title</text>
	<text x="117" y="186.8" fill="#000" font-family="Verdana" font-size="12">duration</text>
	<text x="117" y="203.8" fill="#000" font-family="Verdana" font-size="12">summary</text>
	<text x="117" y="220.8" fill="#000" font-family="Verdana" font-size="12">synopsis</text>
	<text x="117" y="237.8" fill="#000" font-family="Verdana" font-size="12">rating</text>
	<text x="117" y="254.8" fill="#000" font-family="Verdana" font-size="12">image</text>
	<text x="117" y="271.8" fill="#000" font-family="Verdana" font-size="12">country</text>
	<text x="117" y="288.8" fill="#000" font-family="Verdana" font-size="12">year</text>
	<text x="117" y="305.8" fill="#000" font-family="Verdana" font-size="12">type</text>
</g>

<!-- Entity season -->
<g class="page_0_bwDr70XB diagram_page" visibility="visible">
	<g>
		<rect x="225" y="339" width="112" height="25" fill="#a6d96a" stroke="#a6d96a" stroke-width="0" opacity="1"/>
		<rect x="225" y="364" width="112" height="59" fill="#d9ef8b" stroke="#d9ef8b" stroke-width="0" opacity="1"/>
		<rect x="225" y="339" width="112" height="84" fill="none" stroke="#66bd63" stroke-width="2" opacity="1"/>
		<line x1="225" y1="364" x2="337" y2="364" stroke="#66bd63" stroke-width="1"/>
	</g>
	<text x="260" y="356.75" fill="#000" font-family="Verdana" font-size="12">season</text>
	<text x="230" y="381.8" fill="#000" font-family="Verdana" font-size="12">code_season</text>
	<line x1="230" y1="384" x2="309" y2="384" stroke="#000" stroke-width="1"/>
	<text x="230" y="398.8" fill="#000" font-family="Verdana" font-size="12">name</text>
	<text x="230" y="415.8" fill="#000" font-family="Verdana" font-size="12">number_episode</text>
</g>
</svg>